<svg width="1600" height="1000" viewBox="0 0 1600 1000" fill="none" xmlns="http://www.w3.org/2000/svg">
  <rect width="1600" height="1000" fill="#F4F8FF"/>
  <rect x="84" y="90" width="1432" height="820" rx="42" fill="url(#bg)"/>
  <circle cx="1294" cy="222" r="178" fill="#77BB65" fill-opacity="0.18"/>
  <circle cx="306" cy="770" r="196" fill="#2D4F9E" fill-opacity="0.14"/>
  <rect x="188" y="186" width="552" height="492" rx="34" fill="white" fill-opacity="0.94"/>
  <rect x="230" y="242" width="230" height="24" rx="12" fill="#D9E4FA"/>
  <rect x="230" y="290" width="412" height="78" rx="20" fill="#2D4F9E"/>
  <rect x="230" y="390" width="360" height="22" rx="11" fill="#DCE7F8"/>
  <rect x="230" y="428" width="308" height="22" rx="11" fill="#DCE7F8"/>
  <rect x="230" y="488" width="182" height="56" rx="28" fill="#77BB65"/>
  <rect x="430" y="488" width="168" height="56" rx="28" fill="#E7EEF9"/>
  <rect x="230" y="582" width="118" height="52" rx="20" fill="#EEF5ED"/>
  <rect x="366" y="582" width="118" height="52" rx="20" fill="#EEF5ED"/>
  <rect x="502" y="582" width="118" height="52" rx="20" fill="#EEF5ED"/>
  <rect x="806" y="220" width="610" height="230" rx="34" fill="white" fill-opacity="0.94"/>
  <rect x="860" y="282" width="204" height="24" rx="12" fill="#D9E4FA"/>
  <rect x="860" y="334" width="416" height="60" rx="18" fill="#77BB65"/>
  <rect x="806" y="494" width="286" height="246" rx="30" fill="white" fill-opacity="0.92"/>
  <rect x="1130" y="494" width="286" height="246" rx="30" fill="white" fill-opacity="0.92"/>
  <rect x="858" y="550" width="128" height="128" rx="26" fill="#F1F6FF"/>
  <rect x="1182" y="550" width="128" height="128" rx="26" fill="#F3FBF0"/>
  <path d="M915 585H960V630H915V585Z" fill="#2D4F9E"/>
  <path d="M1239 586H1284V631H1239V586Z" fill="#77BB65"/>
  <defs>
    <linearGradient id="bg" x1="84" y1="90" x2="1516" y2="910" gradientUnits="userSpaceOnUse">
      <stop stop-color="#FFFFFF"/>
      <stop offset="0.52" stop-color="#EEF3FF"/>
      <stop offset="1" stop-color="#F8FFF4"/>
    </linearGradient>
  </defs>
</svg>